<?xml version="1.0" encoding="UTF-8"?>
<!-- Generated by Pixelmator Pro 3.7 -->
<svg width="1024" height="1024" viewBox="0 0 1024 1024" xmlns="http://www.w3.org/2000/svg" xmlns:xlink="http://www.w3.org/1999/xlink">
    <linearGradient id="linearGradient1" x1="427.322365" y1="194.571552" x2="597.50812" y2="830.581135" gradientUnits="userSpaceOnUse">
        <stop offset="1e-05" stop-color="#fbad40" stop-opacity="1"/>
        <stop offset="0.15" stop-color="#fbad40" stop-opacity="1"/>
        <stop offset="0.74" stop-color="#ef473c" stop-opacity="1"/>
        <stop offset="1" stop-color="#ef473c" stop-opacity="1"/>
    </linearGradient>
    <path id="Path" fill="url(#linearGradient1)" stroke="none" d="M 487.993134 788.609619 C 487.993134 788.609619 431.268646 911.932922 311.516907 758.356567 C 311.516907 758.356567 266.512817 756.878357 202.790817 665.914063 C 186.173294 659.177734 171.608215 651.893066 159.3909 644.160522 C 166.412048 661.27301 178.111053 684.43988 187.906235 701.92688 C 208.898529 734.484558 216.457626 763.021851 215.46965 764.457214 C 214.842072 765.361694 207.675888 755.998901 197.105453 740.799011 C 172.497116 711.150696 125.872505 654.534912 116.564278 640.071533 C 113.664566 635.564331 112.01413 631.708496 111.145325 628.486389 C 103.898643 633.899292 100.351059 638.415161 100.351059 638.415161 C 92.937729 645.059814 126.747215 704.060608 152.755249 742.424805 C 186.440994 784.780884 196.291885 821.227539 194.481964 823.384521 C 193.217468 824.161377 181.481995 811.863647 164.42424 792.036865 C 123.639252 752.300598 46.441154 677.10907 31.482546 658.431091 C 14.912446 636.562988 26.119246 627.58783 26.119246 627.58783 L 102.947159 546.249268 C 102.88932 545.588013 102.831497 544.92688 103.434784 544.207886 L 76.04657 505.298218 C 73.716042 501.504761 73.253288 496.215454 74.831841 491.413818 C 76.468277 487.273315 80.146019 483.620422 85.435333 483.157654 L 130.708496 475.199402 C 132.402725 471.720093 134.097015 468.240784 136.452438 464.703552 L 117.312286 421.07489 C 114.923859 416.6203 115.783463 411.215332 118.081062 407.016968 C 120.378593 402.818604 124.833229 400.430176 129.519196 400.686462 L 176.321182 402.58783 C 178.67662 399.050659 181.089905 396.174622 183.503143 393.298584 L 172.726746 346.273315 C 171.66069 341.703003 173.181412 336.240234 176.255844 333.306274 C 179.933594 329.653442 184.44606 327.926208 189.247726 329.504761 L 234.157059 340.232605 C 237.289322 337.959839 240.363754 335.026001 242.834839 332.811218 L 241.256882 284.314941 C 241.513123 279.628967 243.752853 274.769409 247.54631 272.438843 C 251.281906 269.447205 256.571228 268.984436 260.769562 271.281982 L 302.463867 290.952026 C 306.315155 289.282654 309.447418 287.009949 312.637573 285.398376 L 320.431549 237.414612 C 321.348938 232.670837 324.36557 229.075806 328.820129 226.687378 C 332.671448 225.017944 338.076416 225.877563 341.613617 228.232971 L 379.431732 256.903015 C 382.621887 255.291504 386.531006 254.283203 390.440155 253.275024 L 406.457275 207.902954 C 408.093689 203.762451 411.771454 200.109558 416.341766 199.043457 C 420.912048 197.977417 425.713715 199.55603 428.705444 203.291565 L 460.432526 238.490601 L 472.333435 237.449341 L 496.747375 196.672485 C 499.044891 192.474121 503.441681 189.4245 508.127716 189.680847 C 512.81366 189.937073 517.012024 192.234619 519.400452 196.68927 L 543.598511 237.21051 C 547.623352 237.524597 551.705994 238.499817 555.069641 238.871826 L 586.615723 203.46698 C 590.293457 199.814026 594.805969 198.086731 599.549744 199.004211 C 604.29364 199.921692 607.946472 203.599365 609.673706 208.111816 L 625.623718 253.35199 C 629.70636 254.327271 633.127869 255.360413 636.549377 256.393433 L 674.078918 228.459839 C 677.814575 225.468079 683.103821 225.00531 687.302124 227.302856 C 691.442627 228.939392 695.095581 232.617065 695.55835 237.906372 L 703.028809 285.220947 C 706.50824 286.9151 710.045471 289.270569 713.524719 290.964905 L 755.112061 271.337097 C 759.566711 268.948669 764.252686 269.204895 768.508911 272.163696 C 772.103943 275.180237 774.49231 279.634888 774.236084 284.320862 L 773.11145 332.387329 C 776.045471 335.461731 778.921509 337.875 781.797485 340.288269 L 826.781433 329.024231 C 831.351746 327.958191 836.153381 329.536743 839.806274 333.214539 C 842.740173 336.288879 843.864075 341.520386 842.946594 346.264221 L 832.392334 393.157043 C 834.665039 396.289246 837.598938 399.363708 839.871582 402.495972 L 886.384338 401.091553 C 891.012512 400.686584 895.210938 402.984253 897.541443 406.777649 C 900.590942 411.174438 901.053833 416.463745 898.756165 420.662109 L 879.978638 464.943237 C 881.590149 468.133301 883.259644 471.984619 884.871155 475.174744 L 930.871338 483.142212 C 935.615234 484.059692 939.210266 487.076233 940.9375 491.588684 C 942.664673 496.101135 942.466309 501.448303 939.449707 505.043335 L 912.878845 544.010254 C 913.168091 547.316101 914.060669 549.902893 914.953125 552.489685 L 996.829102 612.61499 C 996.829102 612.61499 1009.424255 619.507813 996.787537 642.598755 C 985.902893 662.87146 927.215576 745.954102 895.702515 789.350769 C 882.950012 811.119385 874.131653 824.549133 872.751404 824.003662 C 870.652283 822.854858 874.19812 787.234802 898.868225 741.771912 C 916.670532 701.573486 938.687927 641.019531 930.233276 635.763184 C 930.233276 635.763184 927.935913 633.720947 923.583862 631.101563 C 922.80481 633.112915 921.796448 635.299194 920.504883 637.664063 C 912.378845 652.530884 871.723206 710.894897 850.2677 741.466187 C 841.048218 757.094971 834.796204 766.739868 834.253906 765.831909 C 833.403137 764.389526 840.039246 735.263306 858.365662 701.804688 C 869.516113 678.411072 883.502258 645.145813 887.591125 628.703003 C 877.180115 637.796936 863.662598 646.405762 847.464966 654.400024 C 807.399231 718.980103 728.331177 749.554932 728.331177 749.554932 C 604.790283 890.241333 523.76062 792.770813 523.76062 792.770813 C 608.313354 794.884644 650.354858 730.530579 650.354858 730.530579 C 558.990906 706.339111 524.934937 726.068115 524.934937 726.068115 C 527.715759 722.034058 530.475769 718.193542 533.214355 714.539246 L 523.650146 713.839478 L 523.700317 713.770508 C 519.21106 713.816345 514.703003 713.839478 510.177368 713.839478 C 508.116211 713.839478 506.058655 713.834656 504.004944 713.825073 L 504.015808 713.839478 L 492.185242 714.808594 C 494.905701 718.08844 497.640503 721.537476 500.388519 725.162231 C 500.388519 725.162231 453.748322 726.002563 373.073517 736.297058 C 373.073517 736.297058 420.764099 781.046387 487.993134 788.609619 Z M 311.224823 703.475769 L 311.224823 698.425903 C 311.384674 698.205688 311.569122 697.953369 311.777893 697.671021 C 299.628601 695.533325 287.879272 693.205444 276.572845 690.700439 C 285.745209 700.580811 295.328735 708.257935 304.794006 711.716431 C 304.794006 711.716431 307.0289 708.425659 311.224823 703.475769 Z M 735.377319 702.581177 C 742.685425 697.668884 749.467102 692.777222 755.759094 687.938904 C 741.742249 691.295776 726.978577 694.372009 711.557617 697.140137 L 711.557617 708.04248 C 711.622803 708.158203 711.65564 708.218018 711.65564 708.218018 L 735.377319 702.581177 Z M 127.938286 618.67981 C 127.938286 618.67981 127.938286 618.67981 127.938286 618.67981 C 127.938286 618.67981 127.938286 618.67981 127.938286 618.67981 Z"/>
    <mask id="mask1" maskUnits="userSpaceOnUse" maskContentUnits="userSpaceOnUse" mask-type="alpha">
        <linearGradient id="linearGradient2" x1="427.322365" y1="194.571552" x2="597.50812" y2="830.581135" gradientUnits="userSpaceOnUse">
            <stop offset="1e-05" stop-color="#fbad40" stop-opacity="1"/>
            <stop offset="0.15" stop-color="#fbad40" stop-opacity="1"/>
            <stop offset="0.74" stop-color="#ef473c" stop-opacity="1"/>
            <stop offset="1" stop-color="#ef473c" stop-opacity="1"/>
        </linearGradient>
        <path id="path1" fill="url(#linearGradient2)" stroke="none" d="M 487.993134 788.609619 C 487.993134 788.609619 431.268646 911.932922 311.516907 758.356567 C 311.516907 758.356567 266.512817 756.878357 202.790817 665.914063 C 186.173294 659.177734 171.608215 651.893066 159.3909 644.160522 C 166.412048 661.27301 178.111053 684.43988 187.906235 701.92688 C 208.898529 734.484558 216.457626 763.021851 215.46965 764.457214 C 214.842072 765.361694 207.675888 755.998901 197.105453 740.799011 C 172.497116 711.150696 125.872505 654.534912 116.564278 640.071533 C 113.664566 635.564331 112.01413 631.708496 111.145325 628.486389 C 103.898643 633.899292 100.351059 638.415161 100.351059 638.415161 C 92.937729 645.059814 126.747215 704.060608 152.755249 742.424805 C 186.440994 784.780884 196.291885 821.227539 194.481964 823.384521 C 193.217468 824.161377 181.481995 811.863647 164.42424 792.036865 C 123.639252 752.300598 46.441154 677.10907 31.482546 658.431091 C 14.912446 636.562988 26.119246 627.58783 26.119246 627.58783 L 102.947159 546.249268 C 102.88932 545.588013 102.831497 544.92688 103.434784 544.207886 L 76.04657 505.298218 C 73.716042 501.504761 73.253288 496.215454 74.831841 491.413818 C 76.468277 487.273315 80.146019 483.620422 85.435333 483.157654 L 130.708496 475.199402 C 132.402725 471.720093 134.097015 468.240784 136.452438 464.703552 L 117.312286 421.07489 C 114.923859 416.6203 115.783463 411.215332 118.081062 407.016968 C 120.378593 402.818604 124.833229 400.430176 129.519196 400.686462 L 176.321182 402.58783 C 178.67662 399.050659 181.089905 396.174622 183.503143 393.298584 L 172.726746 346.273315 C 171.66069 341.703003 173.181412 336.240234 176.255844 333.306274 C 179.933594 329.653442 184.44606 327.926208 189.247726 329.504761 L 234.157059 340.232605 C 237.289322 337.959839 240.363754 335.026001 242.834839 332.811218 L 241.256882 284.314941 C 241.513123 279.628967 243.752853 274.769409 247.54631 272.438843 C 251.281906 269.447205 256.571228 268.984436 260.769562 271.281982 L 302.463867 290.952026 C 306.315155 289.282654 309.447418 287.009949 312.637573 285.398376 L 320.431549 237.414612 C 321.348938 232.670837 324.36557 229.075806 328.820129 226.687378 C 332.671448 225.017944 338.076416 225.877563 341.613617 228.232971 L 379.431732 256.903015 C 382.621887 255.291504 386.531006 254.283203 390.440155 253.275024 L 406.457275 207.902954 C 408.093689 203.762451 411.771454 200.109558 416.341766 199.043457 C 420.912048 197.977417 425.713715 199.55603 428.705444 203.291565 L 460.432526 238.490601 L 472.333435 237.449341 L 496.747375 196.672485 C 499.044891 192.474121 503.441681 189.4245 508.127716 189.680847 C 512.81366 189.937073 517.012024 192.234619 519.400452 196.68927 L 543.598511 237.21051 C 547.623352 237.524597 551.705994 238.499817 555.069641 238.871826 L 586.615723 203.46698 C 590.293457 199.814026 594.805969 198.086731 599.549744 199.004211 C 604.29364 199.921692 607.946472 203.599365 609.673706 208.111816 L 625.623718 253.35199 C 629.70636 254.327271 633.127869 255.360413 636.549377 256.393433 L 674.078918 228.459839 C 677.814575 225.468079 683.103821 225.00531 687.302124 227.302856 C 691.442627 228.939392 695.095581 232.617065 695.55835 237.906372 L 703.028809 285.220947 C 706.50824 286.9151 710.045471 289.270569 713.524719 290.964905 L 755.112061 271.337097 C 759.566711 268.948669 764.252686 269.204895 768.508911 272.163696 C 772.103943 275.180237 774.49231 279.634888 774.236084 284.320862 L 773.11145 332.387329 C 776.045471 335.461731 778.921509 337.875 781.797485 340.288269 L 826.781433 329.024231 C 831.351746 327.958191 836.153381 329.536743 839.806274 333.214539 C 842.740173 336.288879 843.864075 341.520386 842.946594 346.264221 L 832.392334 393.157043 C 834.665039 396.289246 837.598938 399.363708 839.871582 402.495972 L 886.384338 401.091553 C 891.012512 400.686584 895.210938 402.984253 897.541443 406.777649 C 900.590942 411.174438 901.053833 416.463745 898.756165 420.662109 L 879.978638 464.943237 C 881.590149 468.133301 883.259644 471.984619 884.871155 475.174744 L 930.871338 483.142212 C 935.615234 484.059692 939.210266 487.076233 940.9375 491.588684 C 942.664673 496.101135 942.466309 501.448303 939.449707 505.043335 L 912.878845 544.010254 C 913.168091 547.316101 914.060669 549.902893 914.953125 552.489685 L 996.829102 612.61499 C 996.829102 612.61499 1009.424255 619.507813 996.787537 642.598755 C 985.902893 662.87146 927.215576 745.954102 895.702515 789.350769 C 882.950012 811.119385 874.131653 824.549133 872.751404 824.003662 C 870.652283 822.854858 874.19812 787.234802 898.868225 741.771912 C 916.670532 701.573486 938.687927 641.019531 930.233276 635.763184 C 930.233276 635.763184 927.935913 633.720947 923.583862 631.101563 C 922.80481 633.112915 921.796448 635.299194 920.504883 637.664063 C 912.378845 652.530884 871.723206 710.894897 850.2677 741.466187 C 841.048218 757.094971 834.796204 766.739868 834.253906 765.831909 C 833.403137 764.389526 840.039246 735.263306 858.365662 701.804688 C 869.516113 678.411072 883.502258 645.145813 887.591125 628.703003 C 877.180115 637.796936 863.662598 646.405762 847.464966 654.400024 C 807.399231 718.980103 728.331177 749.554932 728.331177 749.554932 C 604.790283 890.241333 523.76062 792.770813 523.76062 792.770813 C 608.313354 794.884644 650.354858 730.530579 650.354858 730.530579 C 558.990906 706.339111 524.934937 726.068115 524.934937 726.068115 C 527.715759 722.034058 530.475769 718.193542 533.214355 714.539246 L 523.650146 713.839478 L 523.700317 713.770508 C 519.21106 713.816345 514.703003 713.839478 510.177368 713.839478 C 508.116211 713.839478 506.058655 713.834656 504.004944 713.825073 L 504.015808 713.839478 L 492.185242 714.808594 C 494.905701 718.08844 497.640503 721.537476 500.388519 725.162231 C 500.388519 725.162231 453.748322 726.002563 373.073517 736.297058 C 373.073517 736.297058 420.764099 781.046387 487.993134 788.609619 Z M 311.224823 703.475769 L 311.224823 698.425903 C 311.384674 698.205688 311.569122 697.953369 311.777893 697.671021 C 299.628601 695.533325 287.879272 693.205444 276.572845 690.700439 C 285.745209 700.580811 295.328735 708.257935 304.794006 711.716431 C 304.794006 711.716431 307.0289 708.425659 311.224823 703.475769 Z M 735.377319 702.581177 C 742.685425 697.668884 749.467102 692.777222 755.759094 687.938904 C 741.742249 691.295776 726.978577 694.372009 711.557617 697.140137 L 711.557617 708.04248 C 711.622803 708.158203 711.65564 708.218018 711.65564 708.218018 L 735.377319 702.581177 Z M 127.938286 618.67981 C 127.938286 618.67981 127.938286 618.67981 127.938286 618.67981 C 127.938286 618.67981 127.938286 618.67981 127.938286 618.67981 Z"/>
    </mask>
    <g id="Group" mask="url(#mask1)">
        <path id="strut" fill="#fcedda" fill-rule="evenodd" stroke="none" d="M 849.580627 577.837036 C 844.805237 580.917847 839.028748 583.536621 832.250793 585.693176 C 825.4729 587.849792 817.847839 588.928101 809.375488 588.928101 C 793.35498 588.928101 781.455261 584.826782 773.676086 576.623901 C 765.896912 568.421143 762.007385 557.2724 762.007385 543.177429 L 762.007385 487.491028 L 736.243713 487.491028 L 736.243713 462.305054 L 762.007385 462.305054 L 762.007385 435.732666 L 798.515503 431.342468 L 798.515503 462.305054 L 838.027405 462.305054 L 834.445923 487.491028 L 798.515503 487.491028 L 798.515503 543.177429 C 798.515503 549.262146 799.901855 553.61377 802.674622 556.232544 C 805.447388 558.851257 809.876099 560.160645 815.960815 560.160645 C 820.273987 560.160645 824.221313 559.640747 827.802856 558.600952 C 831.384338 557.561157 834.599976 556.232544 837.449768 554.615112 Z M 637.00177 462.305054 L 637.00177 546.296753 C 637.00177 552.227417 638.099304 556.30957 640.294434 558.543213 C 642.489563 560.776794 645.551086 561.893616 649.479248 561.893616 C 653.253296 561.893616 657.027283 560.699768 660.801331 558.312134 C 664.575439 555.924438 667.733276 552.689575 670.274963 548.607422 L 670.274963 462.305054 L 706.783081 462.305054 L 706.783081 585 L 674.89624 585 L 673.278809 570.674072 C 669.119629 576.681763 663.651184 581.225952 656.873291 584.306824 C 650.095337 587.387695 643.00946 588.928101 635.615356 588.928101 C 623.754028 588.928101 614.935181 585.481445 609.158569 578.588013 C 603.381958 571.694519 600.493652 562.4328 600.493652 550.802551 L 600.493652 462.305054 Z M 463.01062 585 L 463.01062 560.507202 L 479.185089 560.507202 L 479.185089 486.566772 L 463.01062 486.566772 L 463.01062 462.305054 L 507.02829 462.305054 L 513.729126 489.917175 C 518.119385 479.365234 523.722656 471.509094 530.539063 466.348633 C 537.355469 461.188232 545.692932 458.608032 555.551697 458.608032 C 559.710876 458.608032 563.407898 458.935364 566.642822 459.590027 C 569.877686 460.244751 572.920044 461.149719 575.769836 462.305054 L 568.95343 513.601257 L 546.078125 513.601257 L 546.078125 490.95697 C 539.146118 492.189331 533.061523 495.944092 527.824036 502.221313 C 522.586548 508.498596 518.542969 516.21991 515.693237 525.385498 L 515.693237 560.507202 L 539.954895 560.507202 L 539.954895 585 Z M 433.665497 577.837036 C 428.890137 580.917847 423.113586 583.536621 416.335693 585.693176 C 409.55777 587.849792 401.932739 588.928101 393.460358 588.928101 C 377.43985 588.928101 365.540161 584.826782 357.760986 576.623901 C 349.981781 568.421143 346.092255 557.2724 346.092255 543.177429 L 346.092255 487.491028 L 320.328613 487.491028 L 320.328613 462.305054 L 346.092255 462.305054 L 346.092255 435.732666 L 382.600342 431.342468 L 382.600342 462.305054 L 422.112305 462.305054 L 418.530792 487.491028 L 382.600342 487.491028 L 382.600342 543.177429 C 382.600342 549.262146 383.986725 553.61377 386.759491 556.232544 C 389.532288 558.851257 393.960968 560.160645 400.045685 560.160645 C 404.358887 560.160645 408.306213 559.640747 411.887695 558.600952 C 415.469208 557.561157 418.684814 556.232544 421.534637 554.615112 Z M 233.795166 562.817871 C 239.879883 562.817871 244.789948 561.855103 248.525497 559.929565 C 252.261047 558.004028 254.128799 555.115723 254.128799 551.264648 C 254.128799 548.645935 253.397095 546.450806 251.933685 544.679321 C 250.470276 542.907837 247.659027 541.213379 243.499847 539.595947 C 239.340683 537.978516 233.179031 536.052979 225.01474 533.819336 C 213.769562 530.815491 204.623383 526.502319 197.575897 520.879761 C 190.528412 515.257202 187.004715 507.015991 187.004715 496.155884 C 187.004715 485.218811 191.568176 476.168945 200.695251 469.005859 C 209.822327 461.842896 223.0121 458.261414 240.264954 458.261414 C 251.202042 458.261414 260.733337 459.667053 268.859131 462.478333 C 276.984924 465.289612 284.013031 468.851807 289.943726 473.165039 L 275.386658 494.653992 C 270.303253 491.496094 264.834778 488.973694 258.98114 487.08667 C 253.127487 485.199585 247.235413 484.256104 241.304749 484.256104 C 229.597443 484.256104 223.743881 487.41394 223.743881 493.729736 C 223.743881 495.809326 224.494827 497.600037 225.996765 499.10199 C 227.498688 500.603882 230.329193 502.144287 234.488358 503.723267 C 238.647537 505.302185 244.732147 507.246948 252.742416 509.557617 C 260.675659 511.79126 267.588257 514.37146 273.480408 517.298279 C 279.372559 520.225098 283.936035 524.133911 287.170959 529.02478 C 290.405853 533.915649 292.023285 540.366089 292.023285 548.376343 C 292.023285 557.310913 289.366089 564.801147 284.051575 570.847351 C 278.737061 576.893555 271.689697 581.418457 262.909241 584.422363 C 254.128754 587.426147 244.501175 588.928101 234.02623 588.928101 C 222.164886 588.928101 211.690094 587.233643 202.601532 583.844666 C 193.51297 580.455688 185.7724 575.988525 179.379608 570.442993 L 197.749191 549.878296 C 202.524536 553.575317 207.935226 556.656128 213.98143 559.12085 C 220.027634 561.585571 226.632141 562.817871 233.795166 562.817871 Z"/>
    </g>
</svg>
