<?xml version="1.0" encoding="UTF-8"?>
<!-- Generated by Pixelmator Pro 3.7 -->
<svg width="200" height="200" viewBox="0 0 200 200" xmlns="http://www.w3.org/2000/svg" xmlns:xlink="http://www.w3.org/1999/xlink">
    <linearGradient id="linearGradient1" x1="83.461399" y1="38.002256" x2="116.700805" y2="162.222878" gradientUnits="userSpaceOnUse">
        <stop offset="1e-05" stop-color="#fbad40" stop-opacity="1"/>
        <stop offset="0.15" stop-color="#fbad40" stop-opacity="1"/>
        <stop offset="0.74" stop-color="#ef473c" stop-opacity="1"/>
        <stop offset="1" stop-color="#ef473c" stop-opacity="1"/>
    </linearGradient>
    <path id="Path" fill="url(#linearGradient1)" stroke="none" d="M 95.311157 154.025314 C 95.311157 154.025314 84.232162 178.111908 60.843147 148.116516 C 60.843147 148.116516 52.053284 147.827805 39.607582 130.06134 C 36.361969 128.745651 33.517231 127.322861 31.131035 125.812599 C 32.502354 129.154877 34.787315 133.679657 36.700436 137.095093 C 40.800491 143.45401 42.276878 149.02771 42.083916 149.308044 C 41.961342 149.484695 40.561695 147.656036 38.497158 144.687317 C 33.690842 138.896622 24.584473 127.838852 22.76646 125.013977 C 22.200111 124.133652 21.877758 123.380562 21.708073 122.751251 C 20.292704 123.808456 19.599815 124.690468 19.599815 124.690468 C 18.151899 125.988235 24.755316 137.511841 29.835009 145.004852 C 36.414257 153.277512 38.338261 160.395996 37.98476 160.817291 C 37.737785 160.969025 35.445702 158.567123 32.114109 154.694702 C 24.148291 146.933716 9.070539 132.247864 6.148935 128.599823 C 2.912587 124.328705 5.101415 122.575745 5.101415 122.575745 L 20.106867 106.689301 C 20.095572 106.560158 20.084276 106.431038 20.202106 106.290604 L 14.852845 98.691055 C 14.397664 97.950142 14.307282 96.917084 14.615594 95.979263 C 14.93521 95.17057 15.65352 94.457115 16.686588 94.36673 L 25.529003 92.812386 C 25.859907 92.132835 26.190825 91.453278 26.650866 90.762413 L 22.912556 82.241188 C 22.446066 81.371155 22.613956 80.315491 23.062708 79.495499 C 23.511444 78.675514 24.381491 78.209015 25.296719 78.259079 L 34.437729 78.63044 C 34.897778 77.939583 35.369122 77.377853 35.840458 76.816124 L 33.735691 67.6315 C 33.527481 66.738861 33.824493 65.671921 34.424969 65.098877 C 35.14328 64.385437 36.02462 64.048096 36.962448 64.3564 L 45.733799 66.451675 C 46.34557 66.007782 46.946045 65.434769 47.42868 65.002197 L 47.120483 55.530258 C 47.170532 54.615036 47.607979 53.665909 48.348888 53.210709 C 49.078499 52.626404 50.111568 52.536026 50.931557 52.984756 L 59.074974 56.826569 C 59.827179 56.500519 60.43895 56.056625 61.062027 55.741867 L 62.58429 46.370041 C 62.763466 45.443527 63.352654 44.741364 64.222679 44.274872 C 64.974892 43.948822 66.030548 44.116714 66.721413 44.576752 L 74.107765 50.176376 C 74.730835 49.861618 75.494339 49.664688 76.257843 49.467773 L 79.386185 40.606049 C 79.705803 39.797348 80.42411 39.083908 81.31675 38.875671 C 82.209389 38.667465 83.147209 38.975784 83.731529 39.705383 L 89.92823 46.5802 L 92.252625 46.376831 L 97.020973 38.412598 C 97.469711 37.592606 98.328453 36.996979 99.243698 37.047043 C 100.15892 37.097092 100.978912 37.545822 101.445396 38.415863 L 106.171585 46.330185 C 106.957687 46.391525 107.755081 46.582001 108.412041 46.654648 L 114.573387 39.739639 C 115.291687 39.026184 116.173042 38.688812 117.099556 38.868011 C 118.0261 39.047211 118.739548 39.765503 119.076897 40.646835 L 122.192131 49.482803 C 122.989525 49.673294 123.657791 49.875076 124.32605 50.076843 L 131.656036 44.621063 C 132.385651 44.036728 133.418716 43.94635 134.238693 44.395096 C 135.047394 44.714722 135.760864 45.433014 135.851242 46.46608 L 137.310318 55.707214 C 137.989899 56.038101 138.680756 56.498154 139.360291 56.829086 L 147.482834 52.995529 C 148.352875 52.529037 149.268112 52.579086 150.099396 53.156967 C 150.801544 53.74614 151.268021 54.61618 151.217987 55.531418 L 150.998337 64.919403 C 151.571381 65.519867 152.133102 65.991211 152.694809 66.462555 L 161.480743 64.262543 C 162.373383 64.054337 163.311218 64.36264 164.024658 65.080963 C 164.597702 65.681412 164.8172 66.703201 164.638 67.62973 L 162.57663 76.788483 C 163.020523 77.400246 163.593536 78.000725 164.03743 78.612495 L 173.121948 78.338196 C 174.025879 78.259102 174.845886 78.707855 175.301071 79.448761 C 175.896667 80.30751 175.987076 81.340576 175.538315 82.160568 L 171.870834 90.809227 C 172.185577 91.432289 172.511642 92.184494 172.826401 92.807571 L 181.810806 94.363708 C 182.73735 94.542908 183.439499 95.132072 183.776855 96.01342 C 184.114197 96.894753 184.075455 97.939117 183.486267 98.641281 L 178.296646 106.252007 C 178.353134 106.897675 178.527481 107.402908 178.701782 107.908142 L 194.693192 119.651375 C 194.693192 119.651375 197.153168 120.997612 194.685059 125.507561 C 192.559158 129.467087 181.096786 145.694153 174.941895 154.170074 C 172.451172 158.421753 170.728836 161.044754 170.459259 160.938217 C 170.049271 160.713837 170.741821 153.756805 175.560196 144.877319 C 179.037201 137.026077 183.337494 125.199135 181.686188 124.172501 C 181.686188 124.172501 181.237488 123.773613 180.387482 123.262032 C 180.235306 123.654861 180.038361 124.081879 179.786118 124.543762 C 178.19899 127.447433 170.258438 138.846664 166.067902 144.817612 C 164.267242 147.870117 163.046127 149.753876 162.940216 149.576538 C 162.774048 149.29483 164.07016 143.60611 167.649536 137.071228 C 169.827362 132.502167 172.559036 126.005043 173.357651 122.793556 C 171.324249 124.569717 168.684097 126.251122 165.520493 127.812515 C 157.69516 140.425797 142.252182 146.397446 142.252182 146.397446 C 118.1231 173.875259 102.296997 154.838043 102.296997 154.838043 C 118.811203 155.2509 127.022438 142.681763 127.022438 142.681763 C 109.17791 137.956848 102.526352 141.810181 102.526352 141.810181 C 103.069489 141.022278 103.608543 140.272171 104.143425 139.558441 L 102.275421 139.421768 L 102.285217 139.408295 C 101.408417 139.417252 100.527931 139.421768 99.644012 139.421768 C 99.241447 139.421768 98.839584 139.420837 98.438469 139.418961 L 98.44059 139.421768 L 96.129929 139.611053 C 96.66127 140.251648 97.195412 140.925278 97.732132 141.63324 C 97.732132 141.63324 88.622719 141.797379 72.865921 143.808014 C 72.865921 143.808014 82.180489 152.548126 95.311157 154.025314 Z M 60.786098 137.397614 L 60.786098 136.411316 C 60.817318 136.368301 60.853344 136.319016 60.894123 136.26387 C 58.52121 135.846344 56.226421 135.391693 54.018131 134.902435 C 55.809608 136.832199 57.681393 138.331635 59.530079 139.007111 C 59.530079 139.007111 59.966579 138.364395 60.786098 137.397614 Z M 143.628387 137.2229 C 145.055756 136.263458 146.380295 135.30806 147.609207 134.363068 C 144.871521 135.018707 141.988007 135.619537 138.976089 136.160187 L 138.976089 138.289551 C 138.988831 138.312164 138.995255 138.323837 138.995255 138.323837 L 143.628387 137.2229 Z M 24.987946 120.835899 C 24.987946 120.835899 24.987946 120.835899 24.987946 120.835899 C 24.987946 120.835899 24.987946 120.835899 24.987946 120.835899 Z"/>
    <mask id="mask1" maskUnits="userSpaceOnUse" maskContentUnits="userSpaceOnUse" mask-type="alpha">
        <linearGradient id="linearGradient2" x1="83.461399" y1="38.002256" x2="116.700805" y2="162.222878" gradientUnits="userSpaceOnUse">
            <stop offset="1e-05" stop-color="#fbad40" stop-opacity="1"/>
            <stop offset="0.15" stop-color="#fbad40" stop-opacity="1"/>
            <stop offset="0.74" stop-color="#ef473c" stop-opacity="1"/>
            <stop offset="1" stop-color="#ef473c" stop-opacity="1"/>
        </linearGradient>
        <path id="path1" fill="url(#linearGradient2)" stroke="none" d="M 95.311157 154.025314 C 95.311157 154.025314 84.232162 178.111908 60.843147 148.116516 C 60.843147 148.116516 52.053284 147.827805 39.607582 130.06134 C 36.361969 128.745651 33.517231 127.322861 31.131035 125.812599 C 32.502354 129.154877 34.787315 133.679657 36.700436 137.095093 C 40.800491 143.45401 42.276878 149.02771 42.083916 149.308044 C 41.961342 149.484695 40.561695 147.656036 38.497158 144.687317 C 33.690842 138.896622 24.584473 127.838852 22.76646 125.013977 C 22.200111 124.133652 21.877758 123.380562 21.708073 122.751251 C 20.292704 123.808456 19.599815 124.690468 19.599815 124.690468 C 18.151899 125.988235 24.755316 137.511841 29.835009 145.004852 C 36.414257 153.277512 38.338261 160.395996 37.98476 160.817291 C 37.737785 160.969025 35.445702 158.567123 32.114109 154.694702 C 24.148291 146.933716 9.070539 132.247864 6.148935 128.599823 C 2.912587 124.328705 5.101415 122.575745 5.101415 122.575745 L 20.106867 106.689301 C 20.095572 106.560158 20.084276 106.431038 20.202106 106.290604 L 14.852845 98.691055 C 14.397664 97.950142 14.307282 96.917084 14.615594 95.979263 C 14.93521 95.17057 15.65352 94.457115 16.686588 94.36673 L 25.529003 92.812386 C 25.859907 92.132835 26.190825 91.453278 26.650866 90.762413 L 22.912556 82.241188 C 22.446066 81.371155 22.613956 80.315491 23.062708 79.495499 C 23.511444 78.675514 24.381491 78.209015 25.296719 78.259079 L 34.437729 78.63044 C 34.897778 77.939583 35.369122 77.377853 35.840458 76.816124 L 33.735691 67.6315 C 33.527481 66.738861 33.824493 65.671921 34.424969 65.098877 C 35.14328 64.385437 36.02462 64.048096 36.962448 64.3564 L 45.733799 66.451675 C 46.34557 66.007782 46.946045 65.434769 47.42868 65.002197 L 47.120483 55.530258 C 47.170532 54.615036 47.607979 53.665909 48.348888 53.210709 C 49.078499 52.626404 50.111568 52.536026 50.931557 52.984756 L 59.074974 56.826569 C 59.827179 56.500519 60.43895 56.056625 61.062027 55.741867 L 62.58429 46.370041 C 62.763466 45.443527 63.352654 44.741364 64.222679 44.274872 C 64.974892 43.948822 66.030548 44.116714 66.721413 44.576752 L 74.107765 50.176376 C 74.730835 49.861618 75.494339 49.664688 76.257843 49.467773 L 79.386185 40.606049 C 79.705803 39.797348 80.42411 39.083908 81.31675 38.875671 C 82.209389 38.667465 83.147209 38.975784 83.731529 39.705383 L 89.92823 46.5802 L 92.252625 46.376831 L 97.020973 38.412598 C 97.469711 37.592606 98.328453 36.996979 99.243698 37.047043 C 100.15892 37.097092 100.978912 37.545822 101.445396 38.415863 L 106.171585 46.330185 C 106.957687 46.391525 107.755081 46.582001 108.412041 46.654648 L 114.573387 39.739639 C 115.291687 39.026184 116.173042 38.688812 117.099556 38.868011 C 118.0261 39.047211 118.739548 39.765503 119.076897 40.646835 L 122.192131 49.482803 C 122.989525 49.673294 123.657791 49.875076 124.32605 50.076843 L 131.656036 44.621063 C 132.385651 44.036728 133.418716 43.94635 134.238693 44.395096 C 135.047394 44.714722 135.760864 45.433014 135.851242 46.46608 L 137.310318 55.707214 C 137.989899 56.038101 138.680756 56.498154 139.360291 56.829086 L 147.482834 52.995529 C 148.352875 52.529037 149.268112 52.579086 150.099396 53.156967 C 150.801544 53.74614 151.268021 54.61618 151.217987 55.531418 L 150.998337 64.919403 C 151.571381 65.519867 152.133102 65.991211 152.694809 66.462555 L 161.480743 64.262543 C 162.373383 64.054337 163.311218 64.36264 164.024658 65.080963 C 164.597702 65.681412 164.8172 66.703201 164.638 67.62973 L 162.57663 76.788483 C 163.020523 77.400246 163.593536 78.000725 164.03743 78.612495 L 173.121948 78.338196 C 174.025879 78.259102 174.845886 78.707855 175.301071 79.448761 C 175.896667 80.30751 175.987076 81.340576 175.538315 82.160568 L 171.870834 90.809227 C 172.185577 91.432289 172.511642 92.184494 172.826401 92.807571 L 181.810806 94.363708 C 182.73735 94.542908 183.439499 95.132072 183.776855 96.01342 C 184.114197 96.894753 184.075455 97.939117 183.486267 98.641281 L 178.296646 106.252007 C 178.353134 106.897675 178.527481 107.402908 178.701782 107.908142 L 194.693192 119.651375 C 194.693192 119.651375 197.153168 120.997612 194.685059 125.507561 C 192.559158 129.467087 181.096786 145.694153 174.941895 154.170074 C 172.451172 158.421753 170.728836 161.044754 170.459259 160.938217 C 170.049271 160.713837 170.741821 153.756805 175.560196 144.877319 C 179.037201 137.026077 183.337494 125.199135 181.686188 124.172501 C 181.686188 124.172501 181.237488 123.773613 180.387482 123.262032 C 180.235306 123.654861 180.038361 124.081879 179.786118 124.543762 C 178.19899 127.447433 170.258438 138.846664 166.067902 144.817612 C 164.267242 147.870117 163.046127 149.753876 162.940216 149.576538 C 162.774048 149.29483 164.07016 143.60611 167.649536 137.071228 C 169.827362 132.502167 172.559036 126.005043 173.357651 122.793556 C 171.324249 124.569717 168.684097 126.251122 165.520493 127.812515 C 157.69516 140.425797 142.252182 146.397446 142.252182 146.397446 C 118.1231 173.875259 102.296997 154.838043 102.296997 154.838043 C 118.811203 155.2509 127.022438 142.681763 127.022438 142.681763 C 109.17791 137.956848 102.526352 141.810181 102.526352 141.810181 C 103.069489 141.022278 103.608543 140.272171 104.143425 139.558441 L 102.275421 139.421768 L 102.285217 139.408295 C 101.408417 139.417252 100.527931 139.421768 99.644012 139.421768 C 99.241447 139.421768 98.839584 139.420837 98.438469 139.418961 L 98.44059 139.421768 L 96.129929 139.611053 C 96.66127 140.251648 97.195412 140.925278 97.732132 141.63324 C 97.732132 141.63324 88.622719 141.797379 72.865921 143.808014 C 72.865921 143.808014 82.180489 152.548126 95.311157 154.025314 Z M 60.786098 137.397614 L 60.786098 136.411316 C 60.817318 136.368301 60.853344 136.319016 60.894123 136.26387 C 58.52121 135.846344 56.226421 135.391693 54.018131 134.902435 C 55.809608 136.832199 57.681393 138.331635 59.530079 139.007111 C 59.530079 139.007111 59.966579 138.364395 60.786098 137.397614 Z M 143.628387 137.2229 C 145.055756 136.263458 146.380295 135.30806 147.609207 134.363068 C 144.871521 135.018707 141.988007 135.619537 138.976089 136.160187 L 138.976089 138.289551 C 138.988831 138.312164 138.995255 138.323837 138.995255 138.323837 L 143.628387 137.2229 Z M 24.987946 120.835899 C 24.987946 120.835899 24.987946 120.835899 24.987946 120.835899 C 24.987946 120.835899 24.987946 120.835899 24.987946 120.835899 Z"/>
    </mask>
    <g id="Group" mask="url(#mask1)">
        <text id="strut" xml:space="preserve" x="30.805482" y="116" font-family="Fira Code" font-size="44.001437" font-weight="700" fill="#fcedda">strut</text>
    </g>
</svg>
